<svg id="Capa_1" data-name="Capa 1" xmlns="http://www.w3.org/2000/svg" viewBox="0 0 855 492.3"><defs><style>.cls-1{fill:#212121;}</style></defs><title>waves</title><path class="cls-1" d="M855,228.63a99.1,99.1,0,0,0-59.86,10.76l-46,24.52a99.11,99.11,0,0,1-91,1.19l-53.88-26.94a99.15,99.15,0,0,0-88.66,0l-55.34,27.68a99.15,99.15,0,0,1-88.66,0l-55.34-27.68a99.15,99.15,0,0,0-88.66,0l-55.34,27.68a99.15,99.15,0,0,1-88.66,0L28.33,238.16A99.24,99.24,0,0,0,0,229V720H855Z" transform="translate(0 -227.7)"/></svg>